<svg xmlns="http://www.w3.org/2000/svg" width="120" height="120" viewBox="0 0 120 120" fill="none">
  <path d="M60 10C40 10 35 25 35 35c0 10 5 25 25 25s25-15 25-25c0-10-5-25-25-25z" fill="url(#herb-gradient1)" stroke="#2A7E19" stroke-width="3"/>
  <path d="M35 60c-10 0-15 7.5-15 15 0 7.5 5 15 15 15s15-7.5 15-15c0-7.5-5-15-15-15z" fill="url(#herb-gradient2)" stroke="#2A7E19" stroke-width="3"/>
  <path d="M85 60c-10 0-15 7.5-15 15 0 7.5 5 15 15 15s15-7.5 15-15c0-7.5-5-15-15-15z" fill="url(#herb-gradient3)" stroke="#2A7E19" stroke-width="3"/>
  <path d="M60 60v50" stroke="#5D4037" stroke-width="4" stroke-linecap="round"/>
  <path d="M35 75v35" stroke="#5D4037" stroke-width="4" stroke-linecap="round"/>
  <path d="M85 75v35" stroke="#5D4037" stroke-width="4" stroke-linecap="round"/>
  
  <defs>
    <linearGradient id="herb-gradient1" x1="35" y1="10" x2="85" y2="60" gradientUnits="userSpaceOnUse">
      <stop offset="0" stop-color="#7CB342"/>
      <stop offset="1" stop-color="#4CAF50"/>
    </linearGradient>
    <linearGradient id="herb-gradient2" x1="20" y1="60" x2="50" y2="90" gradientUnits="userSpaceOnUse">
      <stop offset="0" stop-color="#8BC34A"/>
      <stop offset="1" stop-color="#4CAF50"/>
    </linearGradient>
    <linearGradient id="herb-gradient3" x1="70" y1="60" x2="100" y2="90" gradientUnits="userSpaceOnUse">
      <stop offset="0" stop-color="#8BC34A"/>
      <stop offset="1" stop-color="#4CAF50"/>
    </linearGradient>
  </defs>
</svg> 