<svg xmlns="http://www.w3.org/2000/svg" width="200" height="200" viewBox="0 0 200 200" fill="none">
  <path d="M50 40C30 80 30 120 50 160C70 180 100 180 130 160C160 140 180 100 160 70C140 40 100 20 50 40Z" fill="url(#paint0_radial)" fill-opacity="0.35"/>
  <path d="M50 40C40 70 40 100 50 130C60 160 90 170 120 150C150 130 160 100 150 70C140 40 110 30 50 40Z" fill="url(#paint1_linear)" fill-opacity="0.25"/>
  
  <!-- Leaf veins -->
  <path d="M100 40C80 60 70 100 90 130" stroke="#388E3C" stroke-opacity="0.2" stroke-width="1.5"/>
  <path d="M150 70C130 80 120 100 100 130" stroke="#388E3C" stroke-opacity="0.2" stroke-width="1.5"/>
  <path d="M120 50C100 70 80 90 70 120" stroke="#388E3C" stroke-opacity="0.2" stroke-width="1"/>
  <path d="M140 90C120 100 100 110 90 140" stroke="#388E3C" stroke-opacity="0.2" stroke-width="1"/>
  
  <!-- Highlight -->
  <path d="M70 60C90 70 110 90 120 120" stroke="white" stroke-opacity="0.3" stroke-width="2"/>
  
  <defs>
    <radialGradient id="paint0_radial" cx="0" cy="0" r="1" gradientUnits="userSpaceOnUse" gradientTransform="translate(100 100) rotate(45) scale(100)">
      <stop stop-color="#66BB6A"/>
      <stop offset="1" stop-color="#66BB6A" stop-opacity="0"/>
    </radialGradient>
    <linearGradient id="paint1_linear" x1="60" y1="40" x2="140" y2="150" gradientUnits="userSpaceOnUse">
      <stop stop-color="#43A047"/>
      <stop offset="1" stop-color="#66BB6A" stop-opacity="0.2"/>
    </linearGradient>
  </defs>
</svg> 