<svg xmlns="http://www.w3.org/2000/svg" width="200" height="200" viewBox="0 0 200 200" fill="none">
  <path d="M100 20C60 40 40 80 40 120C40 160 60 180 100 180C140 180 160 160 160 120C160 80 140 40 100 20Z" fill="url(#paint0_radial)" fill-opacity="0.4"/>
  <path d="M100 20C80 40 70 80 70 120C70 160 80 170 100 170C120 170 130 160 130 120C130 80 120 40 100 20Z" fill="url(#paint1_linear)" fill-opacity="0.3"/>
  <path d="M100 40V160" stroke="#4CAF50" stroke-width="2" stroke-opacity="0.2"/>
  <path d="M70 80H130" stroke="#4CAF50" stroke-width="2" stroke-opacity="0.2"/>
  <path d="M70 120H130" stroke="#4CAF50" stroke-width="2" stroke-opacity="0.2"/>
  
  <!-- Leaf veins -->
  <path d="M100 40C80 60 70 80 70 120" stroke="#388E3C" stroke-opacity="0.2" stroke-width="1.5"/>
  <path d="M100 40C120 60 130 80 130 120" stroke="#388E3C" stroke-opacity="0.2" stroke-width="1.5"/>
  <path d="M100 80C90 90 80 100 70 120" stroke="#388E3C" stroke-opacity="0.2" stroke-width="1"/>
  <path d="M100 80C110 90 120 100 130 120" stroke="#388E3C" stroke-opacity="0.2" stroke-width="1"/>
  
  <defs>
    <radialGradient id="paint0_radial" cx="0" cy="0" r="1" gradientUnits="userSpaceOnUse" gradientTransform="translate(100 100) rotate(90) scale(80)">
      <stop stop-color="#81C784"/>
      <stop offset="1" stop-color="#81C784" stop-opacity="0"/>
    </radialGradient>
    <linearGradient id="paint1_linear" x1="100" y1="20" x2="100" y2="170" gradientUnits="userSpaceOnUse">
      <stop stop-color="#4CAF50"/>
      <stop offset="1" stop-color="#81C784" stop-opacity="0.2"/>
    </linearGradient>
  </defs>
</svg> 